<?xml version="1.0" encoding="UTF-8"?>
<svg version="1.1" xmlns="http://www.w3.org/2000/svg" width="64" height="64">
<path d="M0 0 C2.64 0 5.28 0 8 0 C8 0.66 8 1.32 8 2 C8.99 2 9.98 2 11 2 C11.495 2.99 11.495 2.99 12 4 C14.02463255 4.65213292 14.02463255 4.65213292 16 5 C16 5.66 16 6.32 16 7 C16.804375 7.04125 17.60875 7.0825 18.4375 7.125 C24.99446446 8.7354825 30.27001787 12.38669548 34.0625 18 C35.97804159 21.41123844 36.49354886 24.05160913 36 28 C32.91008394 27.5318309 30.6447504 26.82585804 27.8125 25.4375 C23.32819363 23.39376745 18.83137808 23.73753077 14 24 C12.36576978 28.33825772 11.73642165 32.06540035 11.5625 36.6875 C11.06995767 45.00794722 9.16308713 52.31821696 6 60 C4.68 60 3.36 60 2 60 C1.34956281 58.27255984 0.70485156 56.5429631 0.0625 54.8125 C-0.29714844 53.84957031 -0.65679688 52.88664062 -1.02734375 51.89453125 C-3.07440143 45.8026849 -3.29451951 39.85822492 -3.62109375 33.47265625 C-3.99417792 30.05335911 -4.78998581 27.20874208 -6 24 C-12.54951946 23.50776054 -17.2351817 24.06484996 -23.08984375 27.125 C-25 28 -25 28 -28 28 C-28.83828164 22.55116935 -26.90763443 19.40619626 -23.84375 15.12109375 C-19.55111883 10.18274899 -14.56604001 7.492453 -8 7 C-8 6.34 -8 5.68 -8 5 C-7.360625 4.87625 -6.72125 4.7525 -6.0625 4.625 C-5.381875 4.41875 -4.70125 4.2125 -4 4 C-3.67 3.34 -3.34 2.68 -3 2 C-2.01 2 -1.02 2 0 2 C0 1.34 0 0.68 0 0 Z " fill="#2E2E2E" transform="translate(28,2)"/>
<path d="M0 0 C0.67141148 4.415959 1.33631007 8.83287445 2 13.25 C2.28617188 15.13138672 2.28617188 15.13138672 2.578125 17.05078125 C2.75859375 18.25605469 2.9390625 19.46132813 3.125 20.703125 C3.29257812 21.81333008 3.46015625 22.92353516 3.6328125 24.06738281 C4 27 4 27 4 31 C4.66 31 5.32 31 6 31 C6.12117188 30.01902344 6.24234375 29.03804687 6.3671875 28.02734375 C7.52656839 18.67764837 8.73902836 9.33655601 10 0 C10.99 0.598125 11.98 1.19625 13 1.8125 C16.8643116 4.03309624 20.79901802 5.52597123 25 7 C24.67 8.32 24.34 9.64 24 11 C24.66 11 25.32 11 26 11 C26 10.34 26 9.68 26 9 C29.875 10.75 29.875 10.75 31 13 C30.67 13.66 30.34 14.32 30 15 C30.99 15 31.98 15 33 15 C33.66 15.99 34.32 16.98 35 18 C35.66 17.67 36.32 17.34 37 17 C37 18.98 37 20.96 37 23 C33.91008394 22.5318309 31.6447504 21.82585804 28.8125 20.4375 C24.32819363 18.39376745 19.83137808 18.73753077 15 19 C13.31807765 23.45334906 12.67837934 27.37916441 12.4375 32.125 C12.0479576 39.51835574 12.0479576 39.51835574 11 43 C9.02 43.495 9.02 43.495 7 44 C6.67 45.32 6.34 46.64 6 48 C6 46.35 6 44.7 6 43 C5.34 43 4.68 43 4 43 C4 44.65 4 46.3 4 48 C-1.50388204 42.49611796 -0.26296952 31.60768542 -0.52661133 24.26977539 C-0.81523043 17.78768476 -1.92856438 11.95159919 -3.671875 5.6875 C-4 3 -4 3 -2.640625 1.125 C-1 0 -1 0 0 0 Z " fill="#2D2D2D" transform="translate(27,7)"/>
<path d="M0 0 C2.64 0 5.28 0 8 0 C8 0.66 8 1.32 8 2 C8.99 2 9.98 2 11 2 C11.33 2.66 11.66 3.32 12 4 C14.02463255 4.65213292 14.02463255 4.65213292 16 5 C16 5.66 16 6.32 16 7 C16.804375 7.04125 17.60875 7.0825 18.4375 7.125 C24.4535174 8.60261831 29.92631813 12.07784036 33.625 17.125 C35 20 35 20 34.75 22.375 C34.5025 22.91125 34.255 23.4475 34 24 C33.34 22.68 32.68 21.36 32 20 C31.01 20 30.02 20 29 20 C28.8453125 19.071875 28.8453125 19.071875 28.6875 18.125 C28.12474627 15.63473516 28.12474627 15.63473516 25 14 C25 14.66 25 15.32 25 16 C24.34 16 23.68 16 23 16 C23.33 14.68 23.66 13.36 24 12 C22.86111328 11.72736328 22.86111328 11.72736328 21.69921875 11.44921875 C20.70535156 11.19785156 19.71148437 10.94648438 18.6875 10.6875 C17.70136719 10.44386719 16.71523438 10.20023438 15.69921875 9.94921875 C13 9 13 9 10 6 C8.35 15.9 6.7 25.8 5 36 C4.34 36 3.68 36 3 36 C1.35 26.1 -0.3 16.2 -2 6 C-2.99 7.32 -3.98 8.64 -5 10 C-7.48046875 10.609375 -7.48046875 10.609375 -10.1875 10.75 C-11.08855469 10.80671875 -11.98960938 10.8634375 -12.91796875 10.921875 C-13.94857422 10.96054687 -13.94857422 10.96054687 -15 11 C-14.67 10.01 -14.34 9.02 -14 8 C-12.02 7.67 -10.04 7.34 -8 7 C-8 6.34 -8 5.68 -8 5 C-7.360625 4.87625 -6.72125 4.7525 -6.0625 4.625 C-5.381875 4.41875 -4.70125 4.2125 -4 4 C-3.67 3.34 -3.34 2.68 -3 2 C-2.01 2 -1.02 2 0 2 C0 1.34 0 0.68 0 0 Z " fill="#3C3433" transform="translate(28,2)"/>
<path d="M0 0 C0.67141148 4.415959 1.33631007 8.83287445 2 13.25 C2.28617188 15.13138672 2.28617188 15.13138672 2.578125 17.05078125 C2.75859375 18.25605469 2.9390625 19.46132813 3.125 20.703125 C3.29257812 21.81333008 3.46015625 22.92353516 3.6328125 24.06738281 C4 27 4 27 4 31 C4.66 31 5.32 31 6 31 C6.12117188 30.01902344 6.24234375 29.03804687 6.3671875 28.02734375 C7.52656839 18.67764837 8.73902836 9.33655601 10 0 C12.07421875 1.6484375 12.07421875 1.6484375 14 4 C13.76953125 6.6015625 13.76953125 6.6015625 12.8125 9.625 C11.29253291 15.19195764 10.6849723 20.27432152 10.5 26 C10.22561768 33.66322208 9.08121842 40.59138602 7 48 C6.67 48 6.34 48 6 48 C6 46.35 6 44.7 6 43 C5.34 43 4.68 43 4 43 C4 44.65 4 46.3 4 48 C-1.50388204 42.49611796 -0.26296952 31.60768542 -0.52661133 24.26977539 C-0.81523043 17.78768476 -1.92856438 11.95159919 -3.671875 5.6875 C-4 3 -4 3 -2.640625 1.125 C-1 0 -1 0 0 0 Z " fill="#030303" transform="translate(27,7)"/>
<path d="M0 0 C0.73046875 1.7421875 0.73046875 1.7421875 1.1875 3.875 C1.34605469 4.57367188 1.50460938 5.27234375 1.66796875 5.9921875 C2 8 2 8 2 11 C-1.10068377 10.98699923 -4.00383927 10.83403765 -7 10 C-8.95576656 7.2145143 -10 5.42208464 -10 2 C-3.375 -1.125 -3.375 -1.125 0 0 Z " fill="#030303" transform="translate(22,12)"/>
<path d="M0 0 C2.97 0.99 5.94 1.98 9 3 C7.125 9.875 7.125 9.875 6 11 C4.48530552 11.23192865 2.96245438 11.41215238 1.4375 11.5625 C0.61121094 11.64628906 -0.21507812 11.73007812 -1.06640625 11.81640625 C-1.70449219 11.87699219 -2.34257813 11.93757813 -3 12 C-2.88541307 10.56163249 -2.75790884 9.12429034 -2.625 7.6875 C-2.55539063 6.88699219 -2.48578125 6.08648437 -2.4140625 5.26171875 C-2 3 -2 3 0 0 Z " fill="#030303" transform="translate(43,11)"/>
<path d="M0 0 C1.98 0 3.96 0 6 0 C5.85870713 2.41700987 5.71213513 4.83350429 5.5625 7.25 C5.50352539 8.27287109 5.50352539 8.27287109 5.44335938 9.31640625 C5.23333528 12.64448041 4.98065998 15.80255402 4 19 C3.34 19 2.68 19 2 19 C1.66225668 16.77149723 1.3299813 14.54216533 1 12.3125 C0.814375 11.07113281 0.62875 9.82976563 0.4375 8.55078125 C0.07899589 5.64113629 -0.08942256 2.92299978 0 0 Z " fill="#2EC36D" transform="translate(29,9)"/>
<path d="M0 0 C0.66 0 1.32 0 2 0 C1.69055299 2.58373234 1.37756043 5.16695133 1.0625 7.75 C0.93198242 8.84441406 0.93198242 8.84441406 0.79882812 9.9609375 C0.37972591 13.37584442 -0.117274 16.67603543 -1 20 C-1.66 20 -2.32 20 -3 20 C-3.33 17.69 -3.66 15.38 -4 13 C-3.01 13 -2.02 13 -1 13 C-0.67 8.71 -0.34 4.42 0 0 Z " fill="#2E2F2E" transform="translate(34,18)"/>
<path d="M0 0 C0.33 0 0.66 0 1 0 C1.95261487 4.76307437 2.08333357 9.1666528 2 14 C2.66 14 3.32 14 4 14 C4 14.99 4 15.98 4 17 C3.01 17 2.02 17 1 17 C-0.38011717 11.56578866 -1.35111062 6.61776997 -1 1 C-0.67 0.67 -0.34 0.34 0 0 Z " fill="#304639" transform="translate(29,14)"/>
<path d="M0 0 C0.33 2.31 0.66 4.62 1 7 C-0.32 7.33 -1.64 7.66 -3 8 C-3.66 6.35 -4.32 4.7 -5 3 C-2.25 0 -2.25 0 0 0 Z " fill="#050505" transform="translate(11,16)"/>
<path d="M0 0 C1.65 0.33 3.3 0.66 5 1 C4.67 2.65 4.34 4.3 4 6 C2.35 5.67 0.7 5.34 -1 5 C-0.67 3.35 -0.34 1.7 0 0 Z " fill="#2B3A31" transform="translate(44,14)"/>
<path d="M0 0 C1.65 0.33 3.3 0.66 5 1 C4.67 2.65 4.34 4.3 4 6 C2.35 5.67 0.7 5.34 -1 5 C-0.67 3.35 -0.34 1.7 0 0 Z " fill="#2B3A31" transform="translate(16,14)"/>
<path d="M0 0 C3.875 1.75 3.875 1.75 5 4 C4.0625 6.125 4.0625 6.125 3 8 C1.68 7.67 0.36 7.34 -1 7 C-0.67 4.69 -0.34 2.38 0 0 Z " fill="#040404" transform="translate(53,16)"/>
<path d="M0 0 C0.99 0.33 1.98 0.66 3 1 C2.67 2.32 2.34 3.64 2 5 C1.01 5 0.02 5 -1 5 C-0.67 3.35 -0.34 1.7 0 0 Z " fill="#2F2F2F" transform="translate(51,27)"/>
<path d="M0 0 C0.66 0 1.32 0 2 0 C2.33 1.65 2.66 3.3 3 5 C2.01 5 1.02 5 0 5 C-0.5625 3.0625 -0.5625 3.0625 -1 1 C-0.67 0.67 -0.34 0.34 0 0 Z " fill="#2F2F2F" transform="translate(11,27)"/>
<path d="M0 0 C0.66 0 1.32 0 2 0 C1.67 1.65 1.34 3.3 1 5 C0.34 5 -0.32 5 -1 5 C-0.67 3.35 -0.34 1.7 0 0 Z " fill="#323232" transform="translate(56,29)"/>
<path d="M0 0 C0.99 0.33 1.98 0.66 3 1 C3 2.32 3 3.64 3 5 C2.01 4.67 1.02 4.34 0 4 C0 2.68 0 1.36 0 0 Z " fill="#323232" transform="translate(6,29)"/>
<path d="M0 0 C0.66 0 1.32 0 2 0 C2 1.65 2 3.3 2 5 C1.01 4.67 0.02 4.34 -1 4 C-0.67 2.68 -0.34 1.36 0 0 Z " fill="#2F2F2F" transform="translate(46,26)"/>
<path d="M0 0 C0.99 0.33 1.98 0.66 3 1 C2.67 2.32 2.34 3.64 2 5 C1.34 5 0.68 5 0 5 C0 3.35 0 1.7 0 0 Z " fill="#2F2F2F" transform="translate(16,26)"/>
</svg>
