<?xml version="1.0" encoding="UTF-8"?>
<svg version="1.1" xmlns="http://www.w3.org/2000/svg" width="64" height="64">
<path d="M0 0 C2.64 0 5.28 0 8 0 C8 0.66 8 1.32 8 2 C8.99 2 9.98 2 11 2 C11.495 2.99 11.495 2.99 12 4 C14.02463255 4.65213292 14.02463255 4.65213292 16 5 C16 5.66 16 6.32 16 7 C16.804375 7.04125 17.60875 7.0825 18.4375 7.125 C24.99446446 8.7354825 30.27001787 12.38669548 34.0625 18 C35.97804159 21.41123844 36.49354886 24.05160913 36 28 C32.91008394 27.5318309 30.6447504 26.82585804 27.8125 25.4375 C23.32819363 23.39376745 18.83137808 23.73753077 14 24 C12.36576978 28.33825772 11.73642165 32.06540035 11.5625 36.6875 C11.06995767 45.00794722 9.16308713 52.31821696 6 60 C4.68 60 3.36 60 2 60 C1.34956281 58.27255984 0.70485156 56.5429631 0.0625 54.8125 C-0.29714844 53.84957031 -0.65679688 52.88664062 -1.02734375 51.89453125 C-3.07440143 45.8026849 -3.29451951 39.85822492 -3.62109375 33.47265625 C-3.99417792 30.05335911 -4.78998581 27.20874208 -6 24 C-12.54951946 23.50776054 -17.2351817 24.06484996 -23.08984375 27.125 C-25 28 -25 28 -28 28 C-28.83828164 22.55116935 -26.90763443 19.40619626 -23.84375 15.12109375 C-19.55111883 10.18274899 -14.56604001 7.492453 -8 7 C-8 6.34 -8 5.68 -8 5 C-7.360625 4.87625 -6.72125 4.7525 -6.0625 4.625 C-5.381875 4.41875 -4.70125 4.2125 -4 4 C-3.67 3.34 -3.34 2.68 -3 2 C-2.01 2 -1.02 2 0 2 C0 1.34 0 0.68 0 0 Z " fill="#0C0F11" transform="translate(28,2)"/>
<path d="M0 0 C0.66 0 1.32 0 2 0 C1.67 3.3 1.34 6.6 1 10 C1.66 9.67 2.32 9.34 3 9 C6.94570021 7.6847666 9.83963556 7.73158939 14 8 C14.99 8.66 15.98 9.32 17 10 C17.66 9.01 18.32 8.02 19 7 C20.27245673 10.81737018 20.27853128 14.51643092 20.4375 18.5 C20.76102818 25.46948185 21.45252016 32.17906946 23 39 C23.33 38.01 23.66 37.02 24 36 C24.66 36 25.32 36 26 36 C26.33 36.99 26.66 37.98 27 39 C28.36271604 31.03538778 29.30047607 23.16295641 29.75390625 15.09375 C29.97482723 12.3164577 30.3872856 9.71417289 31 7 C31.66 7.99 32.32 8.98 33 10 C33.99 10 34.98 10 36 10 C35.525625 11.03125 35.05125 12.0625 34.5625 13.125 C33.06836843 17.05143877 32.71645278 20.62621122 32.5 24.8125 C32.06424335 33.10076926 30.14902983 40.35235613 27 48 C25.68 48 24.36 48 23 48 C22.34956281 46.27255984 21.70485156 44.5429631 21.0625 42.8125 C20.70285156 41.84957031 20.34320312 40.88664062 19.97265625 39.89453125 C17.92559857 33.8026849 17.70548049 27.85822492 17.37890625 21.47265625 C17.00582208 18.05335911 16.21001419 15.20874208 15 12 C8.45048054 11.50776054 3.7648183 12.06484996 -2.08984375 15.125 C-4 16 -4 16 -7 16 C-7.87494385 10.31286496 -5.56057135 7.30179928 -2.41015625 2.85546875 C-1 1 -1 1 0 0 Z " fill="#02080C" transform="translate(7,14)"/>
<path d="M0 0 C0.67141148 4.415959 1.33631007 8.83287445 2 13.25 C2.28617188 15.13138672 2.28617188 15.13138672 2.578125 17.05078125 C2.75859375 18.25605469 2.9390625 19.46132813 3.125 20.703125 C3.29257812 21.81333008 3.46015625 22.92353516 3.6328125 24.06738281 C4 27 4 27 4 31 C4.66 31 5.32 31 6 31 C6.12117188 30.01902344 6.24234375 29.03804687 6.3671875 28.02734375 C7.52656839 18.67764837 8.73902836 9.33655601 10 0 C12.0703125 1.6015625 12.0703125 1.6015625 14 4 C13.8046875 6.8984375 13.8046875 6.8984375 12.875 10.375 C11.01480282 17.98182604 10.29338101 25.52025101 9.73583984 33.32177734 C9.33853181 38.48492092 8.62916458 43.07870617 7 48 C6.67 48 6.34 48 6 48 C6 46.35 6 44.7 6 43 C5.34 43 4.68 43 4 43 C4 44.65 4 46.3 4 48 C-1.45943121 42.54056879 -0.24490226 31.21562008 -0.52661133 23.86108398 C-0.82603729 17.54658214 -1.98665044 11.82802491 -3.671875 5.72265625 C-4 3 -4 3 -2.640625 1.12109375 C-1 0 -1 0 0 0 Z " fill="#308ECD" transform="translate(27,7)"/>
<path d="M0 0 C1.39044898 3.87862084 2 6.86462003 2 11 C-1.10068377 10.98699923 -4.00383927 10.83403765 -7 10 C-8.95576656 7.2145143 -10 5.42208464 -10 2 C-3.375 -1.125 -3.375 -1.125 0 0 Z " fill="#3292D3" transform="translate(22,12)"/>
<path d="M0 0 C1.98 0 3.96 0 6 0 C5.03644647 11.52164009 5.03644647 11.52164009 4 17 C3.34 17 2.68 17 2 17 C1.66151348 15.10507994 1.32943089 13.20901534 1 11.3125 C0.814375 10.25675781 0.62875 9.20101563 0.4375 8.11328125 C0.04931926 5.35095938 -0.08259976 2.78257957 0 0 Z " fill="#E9EDEE" transform="translate(29,9)"/>
<path d="M0 0 C1.65 0.33 3.3 0.66 5 1 C3.125 7.875 3.125 7.875 2 9 C0.48530552 9.23192865 -1.03754562 9.41215238 -2.5625 9.5625 C-3.38878906 9.64628906 -4.21507812 9.73007812 -5.06640625 9.81640625 C-5.70449219 9.87699219 -6.34257813 9.93757813 -7 10 C-6.74438677 7.6568787 -6.40729228 5.32156597 -6 3 C-5.34 2.67 -4.68 2.34 -4 2 C-3.67 3.32 -3.34 4.64 -3 6 C-1.68 6 -0.36 6 1 6 C0.67 4.02 0.34 2.04 0 0 Z " fill="#3190D0" transform="translate(47,13)"/>
<path d="M0 0 C1.32 1.32 2.64 2.64 4 4 C3.79542597 6.82793509 3.44903637 9.05080115 2.75 11.75 C2.58886719 12.44738281 2.42773438 13.14476562 2.26171875 13.86328125 C1.86182586 15.58046838 1.43362217 17.2910185 1 19 C0.01 19 -0.98 19 -2 19 C-1.34 12.73 -0.68 6.46 0 0 Z " fill="#2E87C3" transform="translate(37,7)"/>
<path d="M0 0 C1.875 0.3125 1.875 0.3125 4 1 C6 4 6 4 5.625 6.6875 C5.41875 7.450625 5.2125 8.21375 5 9 C2.625 8.8125 2.625 8.8125 0 8 C-1.4375 5.625 -1.4375 5.625 -2 3 C-1.34 2.01 -0.68 1.02 0 0 Z " fill="#3D7BA4" transform="translate(43,11)"/>
<path d="M0 0 C0.66 0 1.32 0 2 0 C2.33 3.96 2.66 7.92 3 12 C3.66 12 4.32 12 5 12 C5 13.65 5 15.3 5 17 C4.34 17 3.68 17 3 17 C2.67 17.99 2.34 18.98 2 20 C0.74158054 13.25846717 -0.26404456 6.86515862 0 0 Z " fill="#252B2F" transform="translate(28,14)"/>
<path d="M0 0 C1.32 0.66 2.64 1.32 4 2 C3.67 3.98 3.34 5.96 3 8 C1.68 7.67 0.36 7.34 -1 7 C-0.67 4.69 -0.34 2.38 0 0 Z " fill="#2F8BC8" transform="translate(53,16)"/>
<path d="M0 0 C0.66 0 1.32 0 2 0 C2.33 2.31 2.66 4.62 3 7 C1.68 7.33 0.36 7.66 -1 8 C-1.625 5.125 -1.625 5.125 -2 2 C-1.34 1.34 -0.68 0.68 0 0 Z " fill="#2F8BC8" transform="translate(9,16)"/>
<path d="M0 0 C0.33 0 0.66 0 1 0 C1.0272415 1.41655793 1.04650467 2.83327045 1.0625 4.25 C1.07410156 5.03890625 1.08570313 5.8278125 1.09765625 6.640625 C1.00385306 8.90691002 0.63241063 10.8288895 0 13 C-0.66 13 -1.32 13 -2 13 C-2 10.69 -2 8.38 -2 6 C-1.34 6 -0.68 6 0 6 C0 4.02 0 2.04 0 0 Z " fill="#02080B" transform="translate(33,25)"/>
<path d="M0 0 C2.02907167 3.3146667 2.12742133 5.4315979 1.625 9.25 C1.51414063 10.14203125 1.40328125 11.0340625 1.2890625 11.953125 C1.19367187 12.62859375 1.09828125 13.3040625 1 14 C-1.36574234 10.4513865 -1.10865265 9.4235475 -0.625 5.3125 C-0.51414063 4.31863281 -0.40328125 3.32476563 -0.2890625 2.30078125 C-0.19367187 1.54152344 -0.09828125 0.78226563 0 0 Z " fill="#2C3337" transform="translate(34,14)"/>
<path d="M0 0 C2.475 0.495 2.475 0.495 5 1 C4.67 2.65 4.34 4.3 4 6 C2.68 6 1.36 6 0 6 C0 5.34 0 4.68 0 4 C0.99 4 1.98 4 3 4 C3 3.34 3 2.68 3 2 C2.01 2.33 1.02 2.66 0 3 C0 2.01 0 1.02 0 0 Z " fill="#071620" transform="translate(44,14)"/>
<path d="M0 0 C2.475 0.495 2.475 0.495 5 1 C4.67 2.65 4.34 4.3 4 6 C2.68 6 1.36 6 0 6 C0 5.34 0 4.68 0 4 C0.99 4 1.98 4 3 4 C3 3.34 3 2.68 3 2 C2.01 2.33 1.02 2.66 0 3 C0 2.01 0 1.02 0 0 Z " fill="#071620" transform="translate(16,14)"/>
<path d="M0 0 C0.33 0.99 0.66 1.98 1 3 C1.66 3 2.32 3 3 3 C3 3.66 3 4.32 3 5 C1.1875 5.6875 1.1875 5.6875 -1 6 C-2.75 4.6875 -2.75 4.6875 -4 3 C-4 2.34 -4 1.68 -4 1 C-2 0 -2 0 0 0 Z " fill="#3E799F" transform="translate(16,13)"/>
<path d="M0 0 C0.99 0.33 1.98 0.66 3 1 C3 2.65 3 4.3 3 6 C2.34 6 1.68 6 1 6 C0.67 6.99 0.34 7.98 0 9 C0 6.03 0 3.06 0 0 Z " fill="#34383B" transform="translate(30,25)"/>
<path d="M0 0 C0.6875 2.0625 0.6875 2.0625 1 4 C-1.31 3.34 -3.62 2.68 -6 2 C-6 1.34 -6 0.68 -6 0 C-3 -1 -3 -1 0 0 Z " fill="#2D84BE" transform="translate(22,12)"/>
<path d="M0 0 C0.99 0.33 1.98 0.66 3 1 C2.67 2.32 2.34 3.64 2 5 C1.01 5 0.02 5 -1 5 C-0.67 3.35 -0.34 1.7 0 0 Z " fill="#000000" transform="translate(51,27)"/>
<path d="M0 0 C0.66 0 1.32 0 2 0 C2.33 1.65 2.66 3.3 3 5 C2.01 5 1.02 5 0 5 C-0.5625 3.0625 -0.5625 3.0625 -1 1 C-0.67 0.67 -0.34 0.34 0 0 Z " fill="#000000" transform="translate(11,27)"/>
<path d="M0 0 C0.66 0 1.32 0 2 0 C1.67 1.65 1.34 3.3 1 5 C0.34 5 -0.32 5 -1 5 C-0.67 3.35 -0.34 1.7 0 0 Z " fill="#000000" transform="translate(56,29)"/>
<path d="M0 0 C0.99 0.33 1.98 0.66 3 1 C3 2.32 3 3.64 3 5 C2.01 4.67 1.02 4.34 0 4 C0 2.68 0 1.36 0 0 Z " fill="#000000" transform="translate(6,29)"/>
<path d="M0 0 C0.66 0 1.32 0 2 0 C2 1.65 2 3.3 2 5 C1.01 4.67 0.02 4.34 -1 4 C-0.67 2.68 -0.34 1.36 0 0 Z " fill="#000000" transform="translate(46,26)"/>
<path d="M0 0 C0.99 0.33 1.98 0.66 3 1 C2.67 2.32 2.34 3.64 2 5 C1.34 5 0.68 5 0 5 C0 3.35 0 1.7 0 0 Z " fill="#000000" transform="translate(16,26)"/>
</svg>
