<?xml version="1.0" encoding="UTF-8"?>
<svg version="1.1" xmlns="http://www.w3.org/2000/svg" width="64" height="64">
<path d="M0 0 C2.64 0 5.28 0 8 0 C8 0.66 8 1.32 8 2 C8.99 2 9.98 2 11 2 C11.495 2.99 11.495 2.99 12 4 C14.02463255 4.65213292 14.02463255 4.65213292 16 5 C16 5.66 16 6.32 16 7 C16.804375 7.04125 17.60875 7.0825 18.4375 7.125 C24.99446446 8.7354825 30.27001787 12.38669548 34.0625 18 C35.97804159 21.41123844 36.49354886 24.05160913 36 28 C32.91008394 27.5318309 30.6447504 26.82585804 27.8125 25.4375 C23.32819363 23.39376745 18.83137808 23.73753077 14 24 C12.36576978 28.33825772 11.73642165 32.06540035 11.5625 36.6875 C11.06995767 45.00794722 9.16308713 52.31821696 6 60 C4.68 60 3.36 60 2 60 C1.34956281 58.27255984 0.70485156 56.5429631 0.0625 54.8125 C-0.29714844 53.84957031 -0.65679688 52.88664062 -1.02734375 51.89453125 C-3.07440143 45.8026849 -3.29451951 39.85822492 -3.62109375 33.47265625 C-3.99417792 30.05335911 -4.78998581 27.20874208 -6 24 C-12.54951946 23.50776054 -17.2351817 24.06484996 -23.08984375 27.125 C-25 28 -25 28 -28 28 C-28.83828164 22.55116935 -26.90763443 19.40619626 -23.84375 15.12109375 C-19.55111883 10.18274899 -14.56604001 7.492453 -8 7 C-8 6.34 -8 5.68 -8 5 C-7.360625 4.87625 -6.72125 4.7525 -6.0625 4.625 C-5.381875 4.41875 -4.70125 4.2125 -4 4 C-3.67 3.34 -3.34 2.68 -3 2 C-2.01 2 -1.02 2 0 2 C0 1.34 0 0.68 0 0 Z " fill="#1C1319" transform="translate(28,2)"/>
<path d="M0 0 C0.66 0 1.32 0 2 0 C1.67 3.3 1.34 6.6 1 10 C2.65 9.67 4.3 9.34 6 9 C6.33 8.01 6.66 7.02 7 6 C8.48034764 6.47550561 9.95925021 6.95551216 11.4375 7.4375 C12.26121094 7.70433594 13.08492187 7.97117187 13.93359375 8.24609375 C16 9 16 9 17 10 C17.66 9.01 18.32 8.02 19 7 C19.91009831 9.73029492 20.15769853 11.5258918 20.24609375 14.3515625 C20.27896484 15.20363281 20.31183594 16.05570313 20.34570312 16.93359375 C20.40609813 18.70432396 20.4634736 20.47516017 20.51757812 22.24609375 C20.74864596 28.0620276 21.58486274 33.35090957 23 39 C23.33 38.01 23.66 37.02 24 36 C24.66 36 25.32 36 26 36 C26.33 36.99 26.66 37.98 27 39 C28.36271604 31.03538778 29.30047607 23.16295641 29.75390625 15.09375 C29.97482723 12.3164577 30.3872856 9.71417289 31 7 C31.66 7.99 32.32 8.98 33 10 C33.99 10 34.98 10 36 10 C35.525625 11.03125 35.05125 12.0625 34.5625 13.125 C33.06836843 17.05143877 32.71645278 20.62621122 32.5 24.8125 C32.06424335 33.10076926 30.14902983 40.35235613 27 48 C25.68 48 24.36 48 23 48 C22.34956281 46.27255984 21.70485156 44.5429631 21.0625 42.8125 C20.70285156 41.84957031 20.34320312 40.88664062 19.97265625 39.89453125 C17.92559857 33.8026849 17.70548049 27.85822492 17.37890625 21.47265625 C17.00582208 18.05335911 16.21001419 15.20874208 15 12 C8.45048054 11.50776054 3.7648183 12.06484996 -2.08984375 15.125 C-4 16 -4 16 -7 16 C-7.87494385 10.31286496 -5.56057135 7.30179928 -2.41015625 2.85546875 C-1 1 -1 1 0 0 Z " fill="#0E0E0E" transform="translate(7,14)"/>
<path d="M0 0 C0.67141148 4.415959 1.33631007 8.83287445 2 13.25 C2.28617188 15.13138672 2.28617188 15.13138672 2.578125 17.05078125 C2.75859375 18.25605469 2.9390625 19.46132813 3.125 20.703125 C3.29257812 21.81333008 3.46015625 22.92353516 3.6328125 24.06738281 C4 27 4 27 4 31 C4.66 31 5.32 31 6 31 C6.12117188 30.01902344 6.24234375 29.03804687 6.3671875 28.02734375 C7.52656839 18.67764837 8.73902836 9.33655601 10 0 C12.0703125 1.6015625 12.0703125 1.6015625 14 4 C13.8046875 6.8984375 13.8046875 6.8984375 12.875 10.375 C11.01480282 17.98182604 10.29338101 25.52025101 9.73583984 33.32177734 C9.33853181 38.48492092 8.62916458 43.07870617 7 48 C6.67 48 6.34 48 6 48 C6 46.35 6 44.7 6 43 C5.34 43 4.68 43 4 43 C4 44.65 4 46.3 4 48 C-0.96771467 43.03228533 -0.28434615 33.94159557 -0.4375 27.3125 C-0.68318507 19.73368053 -1.6171658 12.97442187 -3.671875 5.65234375 C-4 3 -4 3 -2.640625 1.12890625 C-1 0 -1 0 0 0 Z " fill="#EFEFEF" transform="translate(27,7)"/>
<path d="M0 0 C1.98 0 3.96 0 6 0 C8.66385036 9.71016423 5.97832392 19.40277382 4 29 C3.34 29 2.68 29 2 29 C1.49061655 26.50159546 0.99236886 24.00176612 0.5 21.5 C0.35691406 20.80390625 0.21382812 20.1078125 0.06640625 19.390625 C-1.20690269 12.84217902 -1.63827137 6.55308548 0 0 Z " fill="#0D160E" transform="translate(29,9)"/>
<path d="M0 0 C1.39044898 3.87862084 2 6.86462003 2 11 C-1.10068377 10.98699923 -4.00383927 10.83403765 -7 10 C-8.95576656 7.2145143 -10 5.42208464 -10 2 C-3.375 -1.125 -3.375 -1.125 0 0 Z " fill="#F5F5F5" transform="translate(22,12)"/>
<path d="M0 0 C2.97 0.99 5.94 1.98 9 3 C7.125 9.875 7.125 9.875 6 11 C4.48530552 11.23192865 2.96245438 11.41215238 1.4375 11.5625 C0.61121094 11.64628906 -0.21507812 11.73007812 -1.06640625 11.81640625 C-1.70449219 11.87699219 -2.34257813 11.93757813 -3 12 C-2.88541307 10.56163249 -2.75790884 9.12429034 -2.625 7.6875 C-2.55539063 6.88699219 -2.48578125 6.08648437 -2.4140625 5.26171875 C-2 3 -2 3 0 0 Z " fill="#F9F9F9" transform="translate(43,11)"/>
<path d="M0 0 C1.98 0 3.96 0 6 0 C5.45118943 6.35219042 4.83488387 12.67873638 4 19 C3.34 19 2.68 19 2 19 C1.66225668 16.77149723 1.3299813 14.54216533 1 12.3125 C0.814375 11.07113281 0.62875 9.82976563 0.4375 8.55078125 C0.07899589 5.64113629 -0.08942256 2.92299978 0 0 Z " fill="#00F71E" transform="translate(29,9)"/>
<path d="M0 0 C1.32 1.32 2.64 2.64 4 4 C3.79542597 6.82793509 3.44903637 9.05080115 2.75 11.75 C2.58886719 12.44738281 2.42773438 13.14476562 2.26171875 13.86328125 C1.86182586 15.58046838 1.43362217 17.2910185 1 19 C0.01 19 -0.98 19 -2 19 C-1.34 12.73 -0.68 6.46 0 0 Z " fill="#E3E3E3" transform="translate(37,7)"/>
<path d="M0 0 C0.22126178 2.45779976 0.42750395 4.91527648 0.625 7.375 C0.68945312 8.07367188 0.75390625 8.77234375 0.8203125 9.4921875 C0.96119739 11.32369111 0.98761659 13.16312748 1 15 C0.34 15.66 -0.32 16.32 -1 17 C-1.58358486 14.73449366 -2.14127095 12.46230199 -2.6875 10.1875 C-3.00074219 8.92292969 -3.31398438 7.65835937 -3.63671875 6.35546875 C-4 3 -4 3 -2.64453125 1.05078125 C-1 0 -1 0 0 0 Z " fill="#E6E6E6" transform="translate(27,7)"/>
<path d="M0 0 C1.65 0.33 3.3 0.66 5 1 C4.67 2.65 4.34 4.3 4 6 C2.35 5.67 0.7 5.34 -1 5 C-0.67 3.35 -0.34 1.7 0 0 Z " fill="#243C27" transform="translate(44,14)"/>
<path d="M0 0 C1.65 0.33 3.3 0.66 5 1 C4.67 2.65 4.34 4.3 4 6 C2.35 5.67 0.7 5.34 -1 5 C-0.67 3.35 -0.34 1.7 0 0 Z " fill="#243C27" transform="translate(16,14)"/>
<path d="M0 0 C0.6875 2.0625 0.6875 2.0625 1 4 C-1.31 3.67 -3.62 3.34 -6 3 C-6.33 3.99 -6.66 4.98 -7 6 C-7.66 6 -8.32 6 -9 6 C-9.33 4.68 -9.66 3.36 -10 2 C-3.375 -1.125 -3.375 -1.125 0 0 Z " fill="#E0E0E0" transform="translate(22,12)"/>
<path d="M0 0 C1.32 0.66 2.64 1.32 4 2 C3.67 3.98 3.34 5.96 3 8 C1.68 7.67 0.36 7.34 -1 7 C-0.67 4.69 -0.34 2.38 0 0 Z " fill="#E9E9E9" transform="translate(53,16)"/>
<path d="M0 0 C0.66 0 1.32 0 2 0 C2.33 2.31 2.66 4.62 3 7 C1.68 7.33 0.36 7.66 -1 8 C-1.625 5.125 -1.625 5.125 -2 2 C-1.34 1.34 -0.68 0.68 0 0 Z " fill="#E9E9E9" transform="translate(9,16)"/>
<path d="M0 0 C0.33 0 0.66 0 1 0 C1.10251672 5.12583611 1.03590199 9.94997778 0 15 C-2.34825713 11.4776143 -2.13467414 10.45883133 -1.6875 6.375 C-1.58824219 5.39273437 -1.48898438 4.41046875 -1.38671875 3.3984375 C-1 1 -1 1 0 0 Z " fill="#0C3111" transform="translate(35,13)"/>
<path d="M0 0 C2.97 0.99 5.94 1.98 9 3 C8.34 4.32 7.68 5.64 7 7 C6.34 6.01 5.68 5.02 5 4 C2.69 4.33 0.38 4.66 -2 5 C-1.34 3.35 -0.68 1.7 0 0 Z " fill="#E4E4E4" transform="translate(43,11)"/>
<path d="M0 0 C0.66 0 1.32 0 2 0 C2.22226864 1.76913824 2.42733873 3.54044371 2.625 5.3125 C2.74101562 6.29863281 2.85703125 7.28476562 2.9765625 8.30078125 C3 11 3 11 1 14 C0.04738513 9.23692563 -0.08333357 4.8333472 0 0 Z " fill="#0D3312" transform="translate(28,14)"/>
<path d="M0 0 C0.99 0.33 1.98 0.66 3 1 C2.67 2.32 2.34 3.64 2 5 C1.01 5 0.02 5 -1 5 C-0.67 3.35 -0.34 1.7 0 0 Z " fill="#000000" transform="translate(51,27)"/>
<path d="M0 0 C0.66 0 1.32 0 2 0 C2.33 1.65 2.66 3.3 3 5 C2.01 5 1.02 5 0 5 C-0.5625 3.0625 -0.5625 3.0625 -1 1 C-0.67 0.67 -0.34 0.34 0 0 Z " fill="#000000" transform="translate(11,27)"/>
<path d="M0 0 C0.66 0 1.32 0 2 0 C1.67 1.65 1.34 3.3 1 5 C0.34 5 -0.32 5 -1 5 C-0.67 3.35 -0.34 1.7 0 0 Z " fill="#000000" transform="translate(56,29)"/>
<path d="M0 0 C0.99 0.33 1.98 0.66 3 1 C3 2.32 3 3.64 3 5 C2.01 4.67 1.02 4.34 0 4 C0 2.68 0 1.36 0 0 Z " fill="#000000" transform="translate(6,29)"/>
<path d="M0 0 C0.66 0 1.32 0 2 0 C2 1.65 2 3.3 2 5 C1.01 4.67 0.02 4.34 -1 4 C-0.67 2.68 -0.34 1.36 0 0 Z " fill="#000000" transform="translate(46,26)"/>
<path d="M0 0 C0.99 0.33 1.98 0.66 3 1 C2.67 2.32 2.34 3.64 2 5 C1.34 5 0.68 5 0 5 C0 3.35 0 1.7 0 0 Z " fill="#000000" transform="translate(16,26)"/>
</svg>
